<mxfile host="app.diagrams.net" modified="2023-10-21T00:50:39.027Z" agent="Mozilla/5.0 (Windows NT 10.0; Win64; x64) AppleWebKit/537.36 (KHTML, like Gecko) Chrome/118.0.0.0 Safari/537.36    " etag="NABhoL-sRECDYw2oDPBd" version="22.0.6" type="github">
  <diagram name="Page-1" id="8ce9d11a-91a2-4d17-14d8-a56ed91bf033">
    <mxGraphModel dx="1434" dy="760" grid="1" gridSize="10" guides="1" tooltips="1" connect="1" arrows="1" fold="1" page="1" pageScale="1" pageWidth="1100" pageHeight="850" background="none" math="0" shadow="0">
      <root>
        <mxCell id="0" />
        <mxCell id="1" parent="0" />
        <mxCell id="NlwQ3GgtvChbYkEZc4po-2" value="Shopping Cart Completed" style="rounded=0;whiteSpace=wrap;html=1;" parent="1" vertex="1">
          <mxGeometry x="40" y="30" width="250" height="60" as="geometry" />
        </mxCell>
        <mxCell id="NlwQ3GgtvChbYkEZc4po-3" value="Create Lead and DreamOns&lt;br&gt;(persist to database and return Lead and DreamOns objects to the&amp;nbsp;frontend)" style="shape=process;whiteSpace=wrap;html=1;backgroundOutline=1;align=center;" parent="1" vertex="1">
          <mxGeometry x="40" y="120" width="250" height="60" as="geometry" />
        </mxCell>
        <mxCell id="NlwQ3GgtvChbYkEZc4po-4" value="" style="endArrow=classic;html=1;rounded=0;entryX=0.5;entryY=0;entryDx=0;entryDy=0;" parent="1" source="NlwQ3GgtvChbYkEZc4po-2" target="NlwQ3GgtvChbYkEZc4po-3" edge="1">
          <mxGeometry width="50" height="50" relative="1" as="geometry">
            <mxPoint x="440" y="330" as="sourcePoint" />
            <mxPoint x="490" y="280" as="targetPoint" />
          </mxGeometry>
        </mxCell>
        <mxCell id="NlwQ3GgtvChbYkEZc4po-14" style="edgeStyle=orthogonalEdgeStyle;rounded=0;orthogonalLoop=1;jettySize=auto;html=1;exitX=0.5;exitY=1;exitDx=0;exitDy=0;entryX=0.5;entryY=0;entryDx=0;entryDy=0;" parent="1" source="NlwQ3GgtvChbYkEZc4po-5" target="NlwQ3GgtvChbYkEZc4po-12" edge="1">
          <mxGeometry relative="1" as="geometry" />
        </mxCell>
        <mxCell id="NlwQ3GgtvChbYkEZc4po-5" value="Choose delivery type for each DreamOn" style="rounded=0;whiteSpace=wrap;html=1;" parent="1" vertex="1">
          <mxGeometry x="40" y="210" width="250" height="60" as="geometry" />
        </mxCell>
        <mxCell id="NlwQ3GgtvChbYkEZc4po-6" value="" style="endArrow=classic;html=1;rounded=0;exitX=0.5;exitY=1;exitDx=0;exitDy=0;entryX=0.5;entryY=0;entryDx=0;entryDy=0;" parent="1" source="NlwQ3GgtvChbYkEZc4po-3" target="NlwQ3GgtvChbYkEZc4po-5" edge="1">
          <mxGeometry width="50" height="50" relative="1" as="geometry">
            <mxPoint x="440" y="330" as="sourcePoint" />
            <mxPoint x="490" y="280" as="targetPoint" />
          </mxGeometry>
        </mxCell>
        <mxCell id="NlwQ3GgtvChbYkEZc4po-12" value="Create Delivery Types from list of delivery types related to DreamOns" style="shape=process;whiteSpace=wrap;html=1;backgroundOutline=1;" parent="1" vertex="1">
          <mxGeometry x="40" y="300" width="250" height="60" as="geometry" />
        </mxCell>
        <mxCell id="NlwQ3GgtvChbYkEZc4po-15" value="Shopping Cart Completed" style="rounded=0;whiteSpace=wrap;html=1;" parent="1" vertex="1">
          <mxGeometry x="650" y="30" width="250" height="60" as="geometry" />
        </mxCell>
        <mxCell id="NlwQ3GgtvChbYkEZc4po-16" value="" style="line;strokeWidth=4;direction=south;html=1;perimeter=backbonePerimeter;points=[];outlineConnect=0;" parent="1" vertex="1">
          <mxGeometry x="460" y="10" width="10" height="760" as="geometry" />
        </mxCell>
        <mxCell id="NlwQ3GgtvChbYkEZc4po-21" style="edgeStyle=orthogonalEdgeStyle;rounded=0;orthogonalLoop=1;jettySize=auto;html=1;exitX=0.5;exitY=1;exitDx=0;exitDy=0;entryX=0.5;entryY=0;entryDx=0;entryDy=0;" parent="1" source="NlwQ3GgtvChbYkEZc4po-17" target="NlwQ3GgtvChbYkEZc4po-18" edge="1">
          <mxGeometry relative="1" as="geometry" />
        </mxCell>
        <mxCell id="NlwQ3GgtvChbYkEZc4po-17" value="Choose delivery type for each DreamOn&lt;br&gt;(have in mind the DreamOns don&#39;t exist yet...)&lt;br&gt;" style="rounded=0;whiteSpace=wrap;html=1;" parent="1" vertex="1">
          <mxGeometry x="650" y="120" width="250" height="60" as="geometry" />
        </mxCell>
        <mxCell id="NlwQ3GgtvChbYkEZc4po-18" value="Create Lead and DreamOns.&lt;br&gt;Create Delivery types and associate them to the DreamOns.&lt;br&gt;Egg and chicken problem!!!" style="shape=process;whiteSpace=wrap;html=1;backgroundOutline=1;align=center;" parent="1" vertex="1">
          <mxGeometry x="650" y="210" width="250" height="60" as="geometry" />
        </mxCell>
        <mxCell id="NlwQ3GgtvChbYkEZc4po-20" style="edgeStyle=orthogonalEdgeStyle;rounded=0;orthogonalLoop=1;jettySize=auto;html=1;exitX=0.5;exitY=1;exitDx=0;exitDy=0;entryX=0.476;entryY=0.017;entryDx=0;entryDy=0;entryPerimeter=0;" parent="1" source="NlwQ3GgtvChbYkEZc4po-15" target="NlwQ3GgtvChbYkEZc4po-17" edge="1">
          <mxGeometry relative="1" as="geometry" />
        </mxCell>
      </root>
    </mxGraphModel>
  </diagram>
</mxfile>
